<?xml version="1.0" standalone="no"?>
<!DOCTYPE svg PUBLIC "-//W3C//DTD SVG 20010904//EN"
 "http://www.w3.org/TR/2001/REC-SVG-20010904/DTD/svg10.dtd">
<svg version="1.0" xmlns="http://www.w3.org/2000/svg"
 width="451.000000pt" height="451.000000pt" viewBox="0 0 451.000000 451.000000"
 preserveAspectRatio="xMidYMid meet">
<metadata>
Created by potrace 1.14, written by Peter Selinger 2001-2017
</metadata>
<g transform="translate(0.000000,451.000000) scale(0.100000,-0.100000)"
fill="#000000" stroke="none">
<path d="M58 4074 c-58 -31 -58 -30 -58 -544 l0 -470 32 -58 c17 -31 40 -67
51 -79 l20 -23 493 0 c543 0 514 -3 548 64 l14 28 12 -23 c7 -13 22 -34 33
-46 l20 -23 493 0 c543 0 514 -3 548 64 l14 28 12 -23 c7 -13 22 -34 33 -46
l20 -23 493 0 c543 0 514 -3 548 64 l14 28 12 -23 c7 -13 22 -34 33 -46 l20
-23 495 0 494 0 29 31 29 31 0 485 0 485 -32 61 c-55 103 -22 97 -561 97 -516
0 -511 1 -543 -62 l-16 -31 -20 32 c-40 62 -31 61 -543 61 -513 0 -509 1 -541
-62 l-16 -31 -20 32 c-40 62 -31 61 -543 61 -513 0 -509 1 -541 -62 l-16 -31
-20 32 c-40 62 -30 61 -545 61 -394 -1 -472 -3 -495 -16z m546 -259 c39 -19
79 -64 91 -102 11 -37 -35 -31 -57 7 -48 85 -156 92 -228 15 -24 -26 -25 -32
-28 -185 -4 -178 3 -205 61 -240 62 -38 167 -17 197 39 6 13 21 21 36 21 24 0
24 -1 10 -29 -25 -48 -81 -89 -131 -97 -92 -13 -160 20 -200 100 -23 46 -25
60 -25 195 0 121 4 153 19 186 47 101 153 138 255 90z m1140 -3 c17 -10 44
-37 61 -61 30 -42 30 -44 33 -193 3 -122 1 -158 -13 -193 -46 -121 -192 -163
-289 -83 -64 53 -76 91 -76 257 0 127 3 150 21 188 22 46 70 89 116 103 38 13
110 4 147 -18z m1071 17 c51 -14 110 -73 124 -124 6 -22 11 -101 11 -175 0
-149 -12 -191 -66 -242 -44 -41 -75 -48 -205 -48 l-119 0 0 300 0 300 108 0
c59 0 125 -5 147 -11z m1285 -24 l0 -25 -170 0 -170 0 0 -110 0 -110 85 0 c84
0 85 0 85 -25 0 -25 -1 -25 -85 -25 l-85 0 0 -110 0 -110 170 0 c163 0 170 -1
170 -20 0 -19 -7 -20 -195 -20 l-195 0 0 290 0 290 195 0 195 0 0 -25z m-3260
-405 c22 -12 34 -55 20 -79 -7 -14 -6 -27 4 -45 18 -34 9 -74 -20 -93 -30 -19
-69 -10 -85 20 -12 21 -11 21 8 5 26 -24 70 -23 83 1 17 33 12 60 -17 74 l-27
14 23 12 c17 10 21 20 19 44 -3 31 -5 32 -45 31 -49 -1 -53 3 -20 16 29 12 35
12 57 0z m1128 -107 l-2 -118 -3 109 -4 109 -24 -23 c-14 -13 -25 -20 -25 -15
0 11 41 55 52 55 4 0 7 -53 6 -117z m1156 95 c26 -36 19 -64 -29 -122 -25 -31
-45 -58 -45 -61 0 -3 20 -5 45 -5 25 0 45 -4 45 -10 0 -6 -27 -10 -60 -10 -33
0 -60 3 -60 8 0 4 19 30 41 57 61 74 71 92 64 115 -9 29 -40 43 -65 30 -11 -6
-20 -17 -20 -25 0 -8 -4 -15 -10 -15 -16 0 -12 18 10 40 27 27 65 26 84 -2z
m1094 -95 l-2 -118 -3 109 -4 109 -24 -23 c-14 -13 -25 -20 -25 -15 0 11 41
55 52 55 4 0 7 -53 6 -117z"/>
<path d="M1582 3771 c-63 -40 -72 -68 -72 -234 0 -114 4 -155 15 -178 48 -92
202 -91 250 1 14 26 16 59 13 191 l-3 159 -37 36 c-46 47 -114 57 -166 25z"/>
<path d="M2610 3541 l0 -251 98 0 c79 0 103 4 129 20 58 35 65 62 61 241 l-3
159 -38 37 -37 38 -105 3 -105 4 0 -251z"/>
<path d="M58 2834 c-58 -31 -58 -30 -58 -544 l0 -470 32 -58 c17 -31 40 -67
51 -79 l20 -23 493 0 c543 0 514 -3 548 64 l14 28 12 -23 c7 -13 22 -34 33
-46 l20 -23 493 0 c543 0 514 -3 548 64 l14 28 12 -23 c7 -13 22 -34 33 -46
l20 -23 493 0 c543 0 514 -3 548 64 l14 28 12 -23 c7 -13 22 -34 33 -46 l20
-23 495 0 494 0 29 31 29 31 0 487 0 486 -33 60 c-55 100 -28 95 -565 95 -510
0 -506 1 -538 -62 l-16 -31 -20 32 c-40 62 -31 61 -543 61 -513 0 -509 1 -541
-62 l-16 -31 -20 32 c-40 62 -31 61 -543 61 -513 0 -509 1 -541 -62 l-16 -31
-20 32 c-40 62 -30 61 -545 61 -394 -1 -472 -3 -495 -16z m261 -491 c36 -134
68 -243 72 -243 3 0 39 104 79 231 l74 231 76 -225 c41 -124 78 -228 81 -232
3 -3 35 100 70 230 34 129 66 240 70 246 3 6 15 9 26 7 18 -3 16 -17 -49 -253
-37 -137 -73 -267 -79 -287 -8 -30 -15 -38 -33 -38 -22 0 -29 14 -74 143 -27
78 -57 166 -67 195 -9 29 -19 51 -21 49 -3 -2 -33 -89 -68 -193 -58 -174 -65
-189 -88 -192 -24 -3 -26 1 -102 280 -42 156 -76 287 -76 291 0 5 10 7 22 5
20 -3 29 -27 87 -245z m1361 -43 l0 -290 -25 0 -25 0 0 290 0 290 25 0 25 0 0
-290z m1270 265 c0 -24 -2 -25 -75 -25 l-75 0 0 -265 c0 -258 -1 -265 -20
-265 -19 0 -20 7 -20 265 l0 265 -80 0 c-79 0 -80 0 -80 25 l0 25 175 0 175 0
0 -25z m790 -105 l0 -130 135 0 135 0 0 130 0 130 25 0 25 0 0 -290 0 -290
-25 0 -25 0 0 135 0 135 -135 0 -135 0 0 -135 0 -135 -25 0 -25 0 0 290 0 290
25 0 25 0 0 -130z m-2850 -374 c-16 -42 -30 -81 -30 -86 0 -6 18 -10 40 -10
34 0 40 3 41 23 l2 22 4 -22 c2 -13 12 -23 21 -23 14 0 14 -1 0 -12 -9 -7 -18
-20 -21 -28 -4 -10 -6 -7 -6 8 -1 20 -6 22 -51 22 -27 0 -50 2 -50 5 0 4 28
79 59 159 6 16 14 26 17 24 2 -3 -9 -40 -26 -82z m930 -31 c0 -70 -4 -115 -10
-115 -6 0 -10 40 -10 100 0 99 -6 114 -30 85 -7 -9 -15 -13 -18 -10 -8 8 39
55 55 55 10 0 13 -26 13 -115z m1238 -2 l-2 -118 -3 109 -4 109 -24 -23 c-14
-13 -25 -20 -25 -15 0 11 41 55 52 55 4 0 7 -53 6 -117z m1122 33 c-16 -42
-30 -81 -30 -86 0 -6 18 -10 40 -10 34 0 40 3 41 23 1 20 2 20 6 2 3 -11 8
-22 12 -25 4 -3 1 -16 -6 -30 -12 -25 -13 -25 -13 -2 0 20 -5 22 -50 22 -27 0
-50 4 -50 8 0 8 34 97 61 161 5 13 12 21 15 19 3 -3 -9 -40 -26 -82z"/>
<path d="M58 1594 c-58 -31 -58 -30 -58 -544 l0 -470 32 -58 c17 -31 40 -67
51 -80 l20 -22 493 0 c543 0 514 -3 548 64 l14 28 12 -23 c7 -13 22 -34 33
-46 l20 -23 493 0 c543 0 514 -3 548 64 l14 28 12 -23 c7 -13 22 -34 33 -46
l20 -23 493 0 c543 0 514 -3 548 64 l14 28 12 -23 c7 -13 22 -34 33 -46 l20
-23 495 0 494 0 29 31 29 31 0 485 0 485 -32 61 c-55 103 -22 97 -561 97 -516
0 -511 1 -543 -62 l-16 -31 -20 32 c-40 62 -31 61 -543 61 -513 0 -509 1 -541
-62 l-16 -31 -20 32 c-40 62 -31 61 -543 61 -513 0 -509 1 -541 -62 l-16 -31
-20 32 c-40 62 -30 61 -545 61 -394 -1 -472 -3 -495 -16z m1686 -262 c17 -10
44 -37 61 -61 30 -42 30 -44 33 -193 3 -122 1 -158 -13 -193 -46 -121 -192
-163 -289 -83 -64 53 -76 91 -76 257 0 127 3 150 21 188 22 46 70 89 116 103
38 13 110 4 147 -18z m-1334 -252 l0 -270 160 0 c153 0 160 -1 160 -20 0 -19
-7 -20 -185 -20 l-185 0 0 290 0 290 25 0 25 0 0 -270z m2220 138 c91 -291
113 -358 119 -358 3 0 39 106 80 234 41 129 77 240 81 246 4 7 16 10 27 8 18
-3 12 -25 -71 -290 -88 -278 -92 -288 -117 -288 -24 0 -28 9 -103 248 -44 136
-85 266 -92 290 -13 41 -13 42 11 42 22 0 27 -11 65 -132z m1470 107 l0 -25
-170 0 -170 0 0 -110 0 -110 85 0 c84 0 85 0 85 -25 0 -25 -1 -25 -85 -25
l-85 0 0 -110 0 -110 170 0 c163 0 170 -1 170 -20 0 -19 -7 -20 -195 -20
l-195 0 0 290 0 290 195 0 195 0 0 -25z m-3262 -512 l-2 -118 -3 109 -4 109
-24 -23 c-14 -13 -25 -20 -25 -15 0 11 41 55 52 55 4 0 7 -53 6 -117z m1130 0
l-2 -118 -3 109 -4 109 -24 -23 c-14 -13 -25 -20 -25 -15 0 11 41 55 52 55 4
0 7 -53 6 -117z m1072 31 c-16 -43 -30 -82 -30 -86 0 -5 18 -8 40 -8 33 0 40
3 40 20 0 11 5 20 10 20 6 0 10 -9 10 -20 0 -11 6 -20 13 -21 10 0 10 -2 0 -6
-7 -2 -13 -13 -13 -24 0 -10 -4 -19 -10 -19 -5 0 -10 9 -10 20 0 17 -7 20 -50
20 -27 0 -50 2 -50 5 0 4 28 79 59 159 6 16 14 27 17 24 2 -3 -9 -41 -26 -84z
m1178 -31 l-2 -118 -3 109 -4 109 -24 -23 c-14 -13 -25 -20 -25 -15 0 11 41
55 52 55 4 0 7 -53 6 -117z"/>
<path d="M1582 1291 c-63 -40 -72 -68 -72 -234 0 -114 4 -155 15 -178 48 -92
202 -91 250 1 14 26 16 59 13 191 l-3 159 -37 36 c-46 47 -114 57 -166 25z"/>
</g>
</svg>
