<?xml version="1.0" encoding="UTF-8" standalone="no"?>
<!DOCTYPE svg PUBLIC "-//W3C//DTD SVG 1.1//EN" "http://www.w3.org/Graphics/SVG/1.1/DTD/svg11.dtd">
<!-- Created with Vectornator (http://vectornator.io/) -->
<svg height="100%" stroke-miterlimit="10" style="fill-rule:nonzero;clip-rule:evenodd;stroke-linecap:round;stroke-linejoin:round;" version="1.1" viewBox="0 0 1000 750" width="100%" xml:space="preserve" xmlns="http://www.w3.org/2000/svg" xmlns:vectornator="http://vectornator.io" xmlns:xlink="http://www.w3.org/1999/xlink">
<defs/>
<g id="Layer-1" vectornator:layerName="Layer 1">
<path d="M0 0L1000 0L1000 750L0 750L0 0Z" fill="#c7c6f7" fill-rule="nonzero" opacity="1" stroke="none"/>
<path d="M0 0L1000 0L1000 750L0 750L0 0Z" fill="#c7c6f7" fill-rule="nonzero" opacity="1" stroke="none"/>
</g>
<g id="Layer-2" vectornator:layerName="Layer 2" visibility="hidden">
<path d="M515.474 248.11C505.426 248.11 504.042 238.267 504.042 227.627L503.77 67.7169C503.77 55.7962 513.306 46.0993 525.028 46.0993L605.409 46.0993C617.13 46.0993 626.666 55.5943 626.666 67.2662L626.666 74.0107C626.666 76.3691 628.583 78.2857 630.941 78.2857L710.172 78.2857C715.755 78.2857 720.299 82.8298 720.299 88.4127L720.299 107.66L714.447 107.66L714.447 88.4127C714.447 86.0543 712.531 84.1377 710.172 84.1377L630.938 84.1377C625.355 84.1377 620.811 79.5936 620.811 74.0107L620.811 67.2662C620.811 58.8217 613.903 51.9514 605.406 51.9514L525.028 51.9514C516.533 51.9514 509.622 59.0236 509.622 67.7168L509.622 86.6629L509.894 227.622C509.894 242.258 513.25 242.258 515.474 242.258L515.474 248.11Z" fill="#000000" fill-rule="nonzero" opacity="1" stroke="none"/>
<path d="M519.863 92.9158C519.056 92.9158 518.4 92.2604 518.4 91.4528L518.4 76.9514C518.4 68.0065 525.42 60.7295 534.051 60.7295L587.162 60.7295C587.97 60.7295 588.625 61.3849 588.625 62.1925C588.625 63.0001 587.97 63.6555 587.162 63.6555L534.051 63.6555C527.035 63.6555 521.326 69.6217 521.326 76.9514L521.326 91.4528C521.326 92.2604 520.671 92.9158 519.863 92.9158ZM610.693 78.5373C609.885 78.5373 609.23 77.8819 609.23 77.0743C609.23 69.7417 603.521 63.7755 596.505 63.7755C595.697 63.7755 595.042 63.1201 595.042 62.3125C595.042 61.5049 595.697 60.8494 596.505 60.8494C605.134 60.8494 612.156 68.1265 612.156 77.0743C612.156 77.8819 611.501 78.5373 610.693 78.5373ZM722.98 248.11L514.743 248.11C513.125 248.11 511.817 246.802 511.817 245.184C511.817 243.566 513.125 242.258 514.743 242.258C515.538 242.258 515.898 242.009 516.165 241.743C518.485 239.411 518.444 230.504 518.412 221.89L518.4 218.118L518.4 107.66C518.4 106.045 519.708 104.734 521.326 104.734L732.001 104.734C733.619 104.734 734.927 106.045 734.927 107.66L734.927 236.163C734.927 242.749 729.566 248.11 722.98 248.11ZM522.555 242.258L722.98 242.258C726.339 242.258 729.075 239.522 729.075 236.163L729.075 110.586L524.252 110.586L524.264 221.866C524.302 230.691 524.328 237.652 522.555 242.258Z" fill="#000000" fill-rule="nonzero" opacity="1" stroke="none"/>
<path d="M619.348 154.477L549.123 154.477C548.316 154.477 547.66 153.821 547.66 153.014L547.66 123.753C547.66 122.946 548.316 122.29 549.123 122.29L619.348 122.29C620.156 122.29 620.811 122.946 620.811 123.753L620.811 153.014C620.811 153.821 620.156 154.477 619.348 154.477ZM550.587 151.551L617.885 151.551L617.885 125.216L550.587 125.216L550.587 151.551Z" fill="#000000" fill-rule="nonzero" opacity="1" stroke="none"/>
</g>
<g id="Layer-3" vectornator:layerName="Layer 3">
<path d="M499.146 332.322C469.699 332.322 448.467 351.527 448.467 380.335C448.467 409.142 472.366 428.347 501.814 428.347C519.605 428.347 535.289 421.305 544.998 409.435L524.593 397.646C519.205 403.541 511.016 406.982 501.814 406.982C489.037 406.982 478.181 400.313 474.153 389.644L548.893 389.644C549.479 386.656 549.826 383.562 549.826 380.308C549.826 351.527 528.594 332.322 499.146 332.322ZM473.913 370.999C477.247 360.356 486.37 353.661 499.12 353.661C511.896 353.661 521.019 360.356 524.326 370.999L473.913 370.999ZM786.367 332.322C756.919 332.322 735.687 351.527 735.687 380.335C735.687 409.142 759.587 428.347 789.034 428.347C806.825 428.347 822.509 421.305 832.218 409.435L811.813 397.646C806.425 403.541 798.236 406.982 789.034 406.982C776.257 406.982 765.401 400.313 761.374 389.644L836.113 389.644C836.7 386.656 837.046 383.562 837.046 380.308C837.046 351.527 815.814 332.322 786.367 332.322ZM761.16 370.999C764.494 360.356 773.617 353.661 786.367 353.661C799.143 353.661 808.266 360.356 811.573 370.999L761.16 370.999ZM657.054 380.335C657.054 396.339 667.51 407.008 683.727 407.008C694.717 407.008 702.959 402.02 707.2 393.885L727.685 405.701C719.203 419.838 703.305 428.347 683.727 428.347C654.253 428.347 633.047 409.142 633.047 380.335C633.047 351.527 654.28 332.322 683.727 332.322C703.305 332.322 719.176 340.831 727.685 354.968L707.2 366.785C702.959 358.649 694.717 353.661 683.727 353.661C667.536 353.661 657.054 364.331 657.054 380.335ZM877.057 302.982L877.057 425.68L853.05 425.68L853.05 302.982L877.057 302.982ZM221.502 289.645L320.061 460.355L122.943 460.355L221.502 289.645ZM467.912 302.982L393.999 431.014L320.087 302.982L347.801 302.982L394 383.002L440.198 302.982C440.198 302.982 467.912 302.982 467.912 302.982ZM625.045 334.99L625.045 360.836C622.378 360.063 619.551 359.529 616.51 359.529C601.013 359.529 589.836 370.199 589.836 386.203L589.836 425.68L565.83 425.68L565.83 334.99L589.836 334.99L589.836 359.529C589.836 345.979 605.6 334.99 625.045 334.99Z" fill="#000000" fill-rule="nonzero" opacity="1" stroke="none"/>
</g>
</svg>
