<?xml version="1.0" encoding="UTF-8" standalone="no"?>
<!DOCTYPE svg PUBLIC "-//W3C//DTD SVG 1.1//EN" "http://www.w3.org/Graphics/SVG/1.1/DTD/svg11.dtd">
<!-- Created with Vectornator (http://vectornator.io/) -->
<svg height="100%" stroke-miterlimit="10" style="fill-rule:nonzero;clip-rule:evenodd;stroke-linecap:round;stroke-linejoin:round;" version="1.1" viewBox="0 0 1000 750" width="100%" xml:space="preserve" xmlns="http://www.w3.org/2000/svg" xmlns:vectornator="http://vectornator.io" xmlns:xlink="http://www.w3.org/1999/xlink">
<defs>
<clipPath id="TextBounds">
<rect height="184.591" width="383.46" x="268.003" y="250.193"/>
</clipPath>
</defs>
<clipPath id="ArtboardFrame">
<rect height="750" width="1000" x="0" y="0"/>
</clipPath>
<g clip-path="url(#ArtboardFrame)" id="Background" vectornator:layerName="Background">
<path d="M-47.4826-1.16891L952.517-1.16891L952.517 748.831L-47.4826 748.831L-47.4826-1.16891Z" fill="#ffffff" fill-rule="nonzero" opacity="1" stroke="none"/>
</g>
<g id="Div-to-Center" vectornator:layerName="Div to Center">
<path d="M250 187.5L750 187.5L750 562.5L250 562.5L250 187.5Z" fill="#e50000" fill-rule="nonzero" opacity="1" stroke="#000000" stroke-linecap="butt" stroke-linejoin="round" stroke-width="10"/>
<g fill="#02004d" opacity="1" stroke="none">
<path clip-path="url(#TextBounds)" d="M420.721 264.659L411.042 303.193L405.271 303.193L397.43 271.206L389.77 303.193L384.128 303.193L374.268 264.659L379.522 264.659L387.285 296.697L394.997 264.659L400.199 264.659L407.989 297.008L415.7 264.659L420.721 264.659Z"/>
<path clip-path="url(#TextBounds)" d="M447.635 303.193L442.77 303.193L442.77 286.734C442.77 285.405 442.705 284.167 442.576 283.02C442.446 281.873 442.2 280.954 441.838 280.264C441.441 279.539 440.889 279 440.182 278.647C439.475 278.293 438.508 278.116 437.283 278.116C436.076 278.116 434.829 278.44 433.544 279.086C432.259 279.733 431.004 280.575 429.779 281.61L429.779 303.193L424.913 303.193L424.913 262.925L429.779 262.925L429.779 277.495C431.228 276.201 432.66 275.209 434.074 274.519C435.489 273.829 436.982 273.484 438.552 273.484C441.398 273.484 443.624 274.42 445.228 276.292C446.833 278.163 447.635 280.876 447.635 284.43L447.635 303.193Z"/>
<path clip-path="url(#TextBounds)" d="M476.723 274.286L461.17 313.855L455.968 313.855L461.144 301.795L450.637 274.286L455.89 274.286L463.783 295.688L471.651 274.286L476.723 274.286Z"/>
<path clip-path="url(#TextBounds)" d="M504.776 303.891C502.843 303.891 501.036 303.633 499.354 303.115C497.672 302.597 496.279 302.045 495.175 301.459L495.175 295.998L495.433 295.998C495.847 296.326 496.335 296.688 496.896 297.085C497.456 297.482 498.202 297.896 499.134 298.327C499.962 298.707 500.872 299.043 501.864 299.337C502.856 299.63 503.887 299.777 504.957 299.777C505.733 299.777 506.561 299.686 507.441 299.505C508.321 299.324 508.977 299.095 509.408 298.819C510.012 298.422 510.447 298 510.715 297.551C510.982 297.103 511.116 296.43 511.116 295.533C511.116 294.377 510.801 293.505 510.171 292.919C509.542 292.332 508.425 291.84 506.82 291.444C506.199 291.288 505.388 291.107 504.387 290.9C503.387 290.693 502.464 290.469 501.618 290.227C499.41 289.589 497.806 288.601 496.805 287.264C495.804 285.927 495.304 284.31 495.304 282.412C495.304 279.807 496.287 277.685 498.254 276.046C500.221 274.407 502.835 273.587 506.095 273.587C507.7 273.587 509.313 273.786 510.935 274.182C512.557 274.579 513.92 275.08 515.024 275.683L515.024 280.885L514.765 280.885C513.523 279.902 512.138 279.125 510.611 278.556C509.084 277.987 507.545 277.702 505.992 277.702C504.387 277.702 503.033 278.038 501.929 278.711C500.825 279.384 500.273 280.402 500.273 281.765C500.273 282.973 500.601 283.874 501.256 284.469C501.912 285.065 502.964 285.552 504.413 285.931C505.138 286.121 505.945 286.307 506.833 286.488C507.722 286.669 508.657 286.88 509.641 287.122C511.78 287.657 513.389 288.545 514.467 289.787C515.546 291.03 516.085 292.72 516.085 294.86C516.085 296.102 515.839 297.279 515.347 298.392C514.855 299.505 514.135 300.458 513.186 301.252C512.151 302.114 510.982 302.77 509.68 303.219C508.377 303.667 506.742 303.891 504.776 303.891Z"/>
<path clip-path="url(#TextBounds)" d="M544.396 288.752C544.396 293.618 543.223 297.374 540.877 300.023C538.53 302.671 535.408 303.995 531.509 303.995C527.489 303.995 524.327 302.628 522.024 299.893C519.721 297.159 518.569 293.445 518.569 288.752C518.569 283.922 519.755 280.169 522.127 277.495C524.5 274.821 527.627 273.484 531.509 273.484C535.408 273.484 538.53 274.816 540.877 277.482C543.223 280.148 544.396 283.904 544.396 288.752ZM539.376 288.752C539.376 285.008 538.694 282.226 537.331 280.406C535.968 278.586 534.027 277.676 531.509 277.676C528.972 277.676 527.019 278.586 525.647 280.406C524.275 282.226 523.59 285.008 523.59 288.752C523.59 292.375 524.275 295.123 525.647 296.995C527.019 298.867 528.972 299.803 531.509 299.803C534.01 299.803 535.947 298.884 537.318 297.046C538.69 295.209 539.376 292.444 539.376 288.752Z"/>
<path clip-path="url(#TextBounds)" d="M387.479 367.193L382.614 367.193L382.614 364.243C381.855 364.881 381.2 365.407 380.647 365.821C380.095 366.235 379.448 366.615 378.707 366.96C378.016 367.288 377.3 367.542 376.559 367.723C375.817 367.904 374.954 367.995 373.971 367.995C372.401 367.995 370.947 367.667 369.61 367.012C368.273 366.356 367.139 365.398 366.207 364.139C365.258 362.862 364.525 361.288 364.007 359.416C363.49 357.544 363.231 355.392 363.231 352.959C363.231 350.423 363.559 348.228 364.214 346.373C364.87 344.518 365.776 342.901 366.932 341.521C367.984 340.261 369.256 339.274 370.749 338.558C372.241 337.842 373.807 337.484 375.446 337.484C376.895 337.484 378.154 337.643 379.224 337.962C380.294 338.282 381.424 338.778 382.614 339.451L382.614 326.925L387.479 326.925L387.479 367.193ZM382.614 360.154L382.614 343.488C381.407 342.901 380.324 342.496 379.366 342.271C378.409 342.047 377.369 341.935 376.248 341.935C373.746 341.935 371.788 342.871 370.374 344.743C368.959 346.615 368.251 349.319 368.251 352.856C368.251 356.255 368.795 358.855 369.882 360.658C370.969 362.461 372.711 363.363 375.109 363.363C376.386 363.363 377.671 363.074 378.965 362.496C380.259 361.918 381.476 361.137 382.614 360.154Z"/>
<path clip-path="url(#TextBounds)" d="M399.487 367.193L394.622 367.193L394.622 338.286L399.487 338.286L399.487 367.193ZM399.824 333.447L394.286 333.447L394.286 328.4L399.824 328.4L399.824 333.447Z"/>
<path clip-path="url(#TextBounds)" d="M421.95 331.583L421.691 331.583C421.26 331.428 420.639 331.277 419.828 331.13C419.017 330.984 418.293 330.91 417.654 330.91C415.601 330.91 414.139 331.372 413.268 332.295C412.397 333.218 411.961 334.887 411.961 337.303L411.961 338.286L420.009 338.286L420.009 342.323L412.116 342.323L412.116 367.193L407.251 367.193L407.251 342.323L403.964 342.323L403.964 338.286L407.251 338.286L407.251 337.328C407.251 333.843 408.088 331.195 409.761 329.384C411.435 327.572 413.833 326.666 416.956 326.666C417.853 326.666 418.733 326.714 419.595 326.809C420.458 326.904 421.243 327.011 421.95 327.132L421.95 331.583Z"/>
<path clip-path="url(#TextBounds)" d="M438.461 331.583L438.202 331.583C437.771 331.428 437.15 331.277 436.339 331.13C435.528 330.984 434.803 330.91 434.165 330.91C432.112 330.91 430.65 331.372 429.779 332.295C428.907 333.218 428.472 334.887 428.472 337.303L428.472 338.286L436.52 338.286L436.52 342.323L428.627 342.323L428.627 367.193L423.762 367.193L423.762 342.323L420.475 342.323L420.475 338.286L423.762 338.286L423.762 337.328C423.762 333.843 424.598 331.195 426.272 329.384C427.945 327.572 430.344 326.666 433.466 326.666C434.363 326.666 435.243 326.714 436.106 326.809C436.969 326.904 437.754 327.011 438.461 327.132L438.461 331.583Z"/>
<path clip-path="url(#TextBounds)" d="M445.086 367.193L440.221 367.193L440.221 338.286L445.086 338.286L445.086 367.193ZM445.422 333.447L439.884 333.447L439.884 328.4L445.422 328.4L445.422 333.447Z"/>
<path clip-path="url(#TextBounds)" d="M463.719 367.84C461.735 367.84 459.915 367.533 458.258 366.921C456.602 366.308 455.179 365.381 453.988 364.139C452.798 362.897 451.875 361.331 451.219 359.442C450.564 357.553 450.236 355.332 450.236 352.778C450.236 350.242 450.577 348.051 451.258 346.205C451.94 344.359 452.85 342.806 453.988 341.547C455.127 340.287 456.546 339.317 458.245 338.635C459.945 337.954 461.769 337.613 463.719 337.613C465.306 337.613 466.837 337.837 468.312 338.286C469.787 338.735 471.103 339.252 472.259 339.839L472.259 345.299L471.974 345.299C471.629 345.006 471.185 344.669 470.641 344.29C470.098 343.91 469.438 343.522 468.662 343.125C467.989 342.78 467.195 342.478 466.281 342.22C465.366 341.961 464.486 341.831 463.641 341.831C461.122 341.831 459.099 342.785 457.573 344.691C456.046 346.597 455.282 349.293 455.282 352.778C455.282 356.194 456.02 358.855 457.495 360.762C458.97 362.668 461.019 363.621 463.641 363.621C465.228 363.621 466.738 363.294 468.17 362.638C469.602 361.982 470.87 361.137 471.974 360.102L472.259 360.102L472.259 365.562C471.776 365.787 471.172 366.058 470.447 366.378C469.723 366.697 469.067 366.934 468.48 367.089C467.652 367.331 466.91 367.516 466.255 367.646C465.599 367.775 464.754 367.84 463.719 367.84Z"/>
<path clip-path="url(#TextBounds)" d="M499.199 367.193L494.334 367.193L494.334 363.984C492.833 365.295 491.409 366.291 490.063 366.973C488.718 367.654 487.217 367.995 485.561 367.995C484.301 367.995 483.115 367.788 482.002 367.374C480.889 366.96 479.919 366.304 479.091 365.407C478.263 364.51 477.62 363.38 477.163 362.017C476.706 360.654 476.477 358.998 476.477 357.048L476.477 338.286L481.342 338.286L481.342 354.745C481.342 356.28 481.398 357.553 481.511 358.562C481.623 359.571 481.877 360.456 482.274 361.215C482.671 361.957 483.21 362.5 483.891 362.845C484.573 363.19 485.552 363.363 486.829 363.363C488.019 363.363 489.287 363.026 490.633 362.353C491.979 361.68 493.212 360.852 494.334 359.869L494.334 338.286L499.199 338.286L499.199 367.193Z"/>
<path clip-path="url(#TextBounds)" d="M511.207 367.193L506.341 367.193L506.341 326.925L511.207 326.925L511.207 367.193Z"/>
<path clip-path="url(#TextBounds)" d="M527.2 367.762C524.543 367.762 522.472 367.007 520.989 365.498C519.505 363.988 518.763 361.603 518.763 358.342L518.763 342.323L515.477 342.323L515.477 338.286L518.763 338.286L518.763 329.979L523.628 329.979L523.628 338.286L532.583 338.286L532.583 342.323L523.628 342.323L523.628 356.065C523.628 357.531 523.654 358.661 523.706 359.455C523.758 360.249 523.956 360.99 524.301 361.68C524.595 362.284 525.069 362.737 525.725 363.039C526.38 363.341 527.269 363.492 528.39 363.492C529.184 363.492 529.952 363.376 530.693 363.143C531.435 362.91 531.97 362.716 532.298 362.56L532.583 362.56L532.583 366.934C531.668 367.193 530.741 367.395 529.801 367.542C528.86 367.689 527.993 367.762 527.2 367.762Z"/>
<path clip-path="url(#TextBounds)" d="M556.262 337.717C556.262 339.407 555.981 340.913 555.421 342.232C554.86 343.552 554.114 344.713 553.182 345.713C552.25 346.714 551.194 347.637 550.012 348.482C548.83 349.328 547.584 350.147 546.272 350.941L546.272 356.841L541.64 356.841L541.64 348.948C542.606 348.361 543.732 347.658 545.017 346.839C546.303 346.019 547.308 345.256 548.032 344.549C548.964 343.669 549.688 342.707 550.206 341.663C550.724 340.619 550.982 339.433 550.982 338.105C550.982 336.155 550.37 334.702 549.145 333.744C547.92 332.787 546.324 332.308 544.357 332.308C542.632 332.308 541.006 332.597 539.479 333.175C537.952 333.753 536.715 334.352 535.766 334.973L535.481 334.973L535.481 329.694C536.637 329.228 538.095 328.81 539.854 328.439C541.614 328.068 543.279 327.883 544.849 327.883C548.386 327.883 551.172 328.784 553.208 330.587C555.244 332.39 556.262 334.766 556.262 337.717ZM546.687 367.193L541.407 367.193L541.407 361.732L546.687 361.732L546.687 367.193Z"/>
</g>
</g>
<g id="Arrows" vectornator:layerName="Arrows">
<g opacity="1">
<path d="M81.392 374.993L220.781 374.993" fill="none" opacity="1" stroke="#000000" stroke-linecap="butt" stroke-linejoin="round" stroke-width="10"/>
<path d="M84.6 376.155L120.671 406.272" fill="none" opacity="1" stroke="#000000" stroke-linecap="butt" stroke-linejoin="round" stroke-width="10"/>
<path d="M120.671 343.728L84.6 373.845" fill="none" opacity="1" stroke="#000000" stroke-linecap="butt" stroke-linejoin="round" stroke-width="10"/>
</g>
<g opacity="1">
<path d="M918.781 374.993L779.392 374.993" fill="none" opacity="1" stroke="#000000" stroke-linecap="butt" stroke-linejoin="round" stroke-width="10"/>
<path d="M915.573 376.155L879.502 406.272" fill="none" opacity="1" stroke="#000000" stroke-linecap="butt" stroke-linejoin="round" stroke-width="10"/>
<path d="M879.502 343.728L915.573 373.845" fill="none" opacity="1" stroke="#000000" stroke-linecap="butt" stroke-linejoin="round" stroke-width="10"/>
</g>
<g opacity="1">
<path d="M499.617 22.2789L500.369 161.666" fill="none" opacity="1" stroke="#000000" stroke-linecap="butt" stroke-linejoin="round" stroke-width="10"/>
<path d="M500.796 25.4806L531.108 61.3883" fill="none" opacity="1" stroke="#000000" stroke-linecap="butt" stroke-linejoin="round" stroke-width="10"/>
<path d="M468.564 61.7258L498.486 25.4931" fill="none" opacity="1" stroke="#000000" stroke-linecap="butt" stroke-linejoin="round" stroke-width="10"/>
</g>
<g opacity="1">
<path d="M499.617 721.666L500.369 582.279" fill="none" opacity="1" stroke="#000000" stroke-linecap="butt" stroke-linejoin="round" stroke-width="10"/>
<path d="M500.796 718.464L531.108 682.556" fill="none" opacity="1" stroke="#000000" stroke-linecap="butt" stroke-linejoin="round" stroke-width="10"/>
<path d="M468.564 682.219L498.486 718.452" fill="none" opacity="1" stroke="#000000" stroke-linecap="butt" stroke-linejoin="round" stroke-width="10"/>
</g>
</g>
</svg>
