<?xml version="1.0" encoding="UTF-8" standalone="no"?>
<!DOCTYPE svg PUBLIC "-//W3C//DTD SVG 1.1//EN" "http://www.w3.org/Graphics/SVG/1.1/DTD/svg11.dtd">
<!-- Created with Vectornator (http://vectornator.io/) -->
<svg height="100%" stroke-miterlimit="10" style="fill-rule:nonzero;clip-rule:evenodd;stroke-linecap:round;stroke-linejoin:round;" version="1.1" viewBox="0 0 1000 750" width="100%" xml:space="preserve" xmlns="http://www.w3.org/2000/svg" xmlns:vectornator="http://vectornator.io" xmlns:xlink="http://www.w3.org/1999/xlink">
<defs>
<linearGradient gradientTransform="matrix(0.983333 0 0 1 5.5896e-14 0)" gradientUnits="userSpaceOnUse" id="LinearGradient" x1="-2.84217e-14" x2="1016.95" y1="375" y2="375">
<stop offset="0" stop-color="#02004d"/>
<stop offset="0.103693" stop-color="#064864"/>
<stop offset="0.20219" stop-color="#0a8d7a"/>
<stop offset="0.331728" stop-color="#808ebb"/>
<stop offset="0.500087" stop-color="#ae95a8"/>
<stop offset="0.672308" stop-color="#c4707c"/>
<stop offset="0.795507" stop-color="#d4a16e"/>
<stop offset="0.918324" stop-color="#ae845f"/>
<stop offset="1" stop-color="#6a555e"/>
</linearGradient>
<clipPath id="TextBounds">
<rect height="184.591" width="383.46" x="268.003" y="250.193"/>
</clipPath>
<filter color-interpolation-filters="sRGB" filterUnits="userSpaceOnUse" height="125.07" id="Filter" width="288.959" x="314.853" y="256.925">
<feDropShadow dx="2.44929e-16" dy="4" flood-color="#000000" flood-opacity="0.333" in="SourceGraphic" result="Shadow" stdDeviation="5"/>
</filter>
</defs>
<g id="Background" vectornator:layerName="Background">
<path d="M2.7948e-14 0L1000 0L1000 750L2.7948e-14 750L2.7948e-14 0Z" fill="url(#LinearGradient)" fill-rule="nonzero" opacity="0.809391" stroke="none"/>
</g>
<g id="Div-to-Center" vectornator:layerName="Div to Center">
<path d="M250 187.5L750 187.5L750 562.5L250 562.5L250 187.5Z" fill="none" opacity="1" stroke="#000000" stroke-linecap="butt" stroke-linejoin="round" stroke-width="10"/>
<g fill="#ffffff" filter="url(#Filter)" stroke="none" vectornator:shadowAngle="1.5708" vectornator:shadowColor="#000000" vectornator:shadowOffset="4" vectornator:shadowOpacity="0.333" vectornator:shadowRadius="10">
<path clip-path="url(#TextBounds)" d="M371.305 264.659L361.626 303.193L355.855 303.193L348.014 271.206L340.354 303.193L334.712 303.193L324.853 264.659L330.106 264.659L337.87 296.697L345.582 264.659L350.783 264.659L358.573 297.008L366.285 264.659L371.305 264.659Z"/>
<path clip-path="url(#TextBounds)" d="M398.219 303.193L393.354 303.193L393.354 286.734C393.354 285.405 393.289 284.167 393.16 283.02C393.031 281.873 392.785 280.954 392.422 280.264C392.026 279.539 391.473 279 390.766 278.647C390.059 278.293 389.093 278.116 387.868 278.116C386.66 278.116 385.413 278.44 384.128 279.086C382.843 279.733 381.588 280.575 380.363 281.61L380.363 303.193L375.498 303.193L375.498 262.925L380.363 262.925L380.363 277.495C381.812 276.201 383.244 275.209 384.659 274.519C386.073 273.829 387.566 273.484 389.136 273.484C391.982 273.484 394.208 274.42 395.813 276.292C397.417 278.163 398.219 280.876 398.219 284.43L398.219 303.193Z"/>
<path clip-path="url(#TextBounds)" d="M427.307 274.286L411.754 313.855L406.552 313.855L411.728 301.795L401.221 274.286L406.475 274.286L414.368 295.688L422.235 274.286L427.307 274.286Z"/>
<path clip-path="url(#TextBounds)" d="M452.513 303.193L447.648 303.193L447.648 274.286L452.513 274.286L452.513 303.193ZM452.85 269.447L447.312 269.447L447.312 264.4L452.85 264.4L452.85 269.447Z"/>
<path clip-path="url(#TextBounds)" d="M467.471 303.891C465.539 303.891 463.732 303.633 462.05 303.115C460.367 302.597 458.974 302.045 457.87 301.459L457.87 295.998L458.129 295.998C458.543 296.326 459.03 296.688 459.591 297.085C460.152 297.482 460.898 297.896 461.83 298.327C462.658 298.707 463.568 299.043 464.56 299.337C465.552 299.63 466.583 299.777 467.652 299.777C468.429 299.777 469.257 299.686 470.137 299.505C471.017 299.324 471.672 299.095 472.104 298.819C472.707 298.422 473.143 298 473.41 297.551C473.678 297.103 473.812 296.43 473.812 295.533C473.812 294.377 473.497 293.505 472.867 292.919C472.237 292.332 471.12 291.84 469.516 291.444C468.895 291.288 468.084 291.107 467.083 290.9C466.082 290.693 465.159 290.469 464.314 290.227C462.106 289.589 460.501 288.601 459.5 287.264C458.5 285.927 458 284.31 458 282.412C458 279.807 458.983 277.685 460.95 276.046C462.917 274.407 465.53 273.587 468.791 273.587C470.396 273.587 472.009 273.786 473.63 274.182C475.252 274.579 476.615 275.08 477.719 275.683L477.719 280.885L477.46 280.885C476.218 279.902 474.834 279.125 473.307 278.556C471.78 277.987 470.24 277.702 468.688 277.702C467.083 277.702 465.729 278.038 464.625 278.711C463.52 279.384 462.968 280.402 462.968 281.765C462.968 282.973 463.296 283.874 463.952 284.469C464.607 285.065 465.66 285.552 467.109 285.931C467.834 286.121 468.64 286.307 469.529 286.488C470.417 286.669 471.353 286.88 472.336 287.122C474.476 287.657 476.085 288.545 477.163 289.787C478.241 291.03 478.78 292.72 478.78 294.86C478.78 296.102 478.534 297.279 478.043 298.392C477.551 299.505 476.831 300.458 475.882 301.252C474.847 302.114 473.678 302.77 472.375 303.219C471.073 303.667 469.438 303.891 467.471 303.891Z"/>
<path clip-path="url(#TextBounds)" d="M504.84 303.193L499.975 303.193L499.975 274.286L504.84 274.286L504.84 303.193ZM505.177 269.447L499.639 269.447L499.639 264.4L505.177 264.4L505.177 269.447Z"/>
<path clip-path="url(#TextBounds)" d="M520.834 303.762C518.177 303.762 516.106 303.007 514.623 301.498C513.139 299.988 512.397 297.603 512.397 294.342L512.397 278.323L509.11 278.323L509.11 274.286L512.397 274.286L512.397 265.979L517.262 265.979L517.262 274.286L526.216 274.286L526.216 278.323L517.262 278.323L517.262 292.065C517.262 293.531 517.288 294.661 517.34 295.455C517.392 296.249 517.59 296.99 517.935 297.68C518.228 298.284 518.703 298.737 519.358 299.039C520.014 299.341 520.903 299.492 522.024 299.492C522.818 299.492 523.585 299.376 524.327 299.143C525.069 298.91 525.604 298.716 525.932 298.56L526.216 298.56L526.216 302.934C525.302 303.193 524.375 303.395 523.434 303.542C522.494 303.689 521.627 303.762 520.834 303.762Z"/>
<path clip-path="url(#TextBounds)" d="M554.191 303.891C552.259 303.891 550.452 303.633 548.77 303.115C547.088 302.597 545.695 302.045 544.59 301.459L544.59 295.998L544.849 295.998C545.263 296.326 545.751 296.688 546.311 297.085C546.872 297.482 547.618 297.896 548.55 298.327C549.378 298.707 550.288 299.043 551.28 299.337C552.272 299.63 553.303 299.777 554.373 299.777C555.149 299.777 555.977 299.686 556.857 299.505C557.737 299.324 558.392 299.095 558.824 298.819C559.428 298.422 559.863 298 560.131 297.551C560.398 297.103 560.532 296.43 560.532 295.533C560.532 294.377 560.217 293.505 559.587 292.919C558.957 292.332 557.84 291.84 556.236 291.444C555.615 291.288 554.804 291.107 553.803 290.9C552.803 290.693 551.88 290.469 551.034 290.227C548.826 289.589 547.221 288.601 546.221 287.264C545.22 285.927 544.72 284.31 544.72 282.412C544.72 279.807 545.703 277.685 547.67 276.046C549.637 274.407 552.25 273.587 555.511 273.587C557.116 273.587 558.729 273.786 560.351 274.182C561.972 274.579 563.335 275.08 564.439 275.683L564.439 280.885L564.181 280.885C562.938 279.902 561.554 279.125 560.027 278.556C558.5 277.987 556.96 277.702 555.408 277.702C553.803 277.702 552.449 278.038 551.345 278.711C550.241 279.384 549.688 280.402 549.688 281.765C549.688 282.973 550.016 283.874 550.672 284.469C551.327 285.065 552.38 285.552 553.829 285.931C554.554 286.121 555.36 286.307 556.249 286.488C557.137 286.669 558.073 286.88 559.057 287.122C561.196 287.657 562.805 288.545 563.883 289.787C564.961 291.03 565.5 292.72 565.5 294.86C565.5 296.102 565.255 297.279 564.763 298.392C564.271 299.505 563.551 300.458 562.602 301.252C561.567 302.114 560.398 302.77 559.095 303.219C557.793 303.667 556.158 303.891 554.191 303.891Z"/>
<path clip-path="url(#TextBounds)" d="M593.812 288.752C593.812 293.618 592.639 297.374 590.292 300.023C587.946 302.671 584.823 303.995 580.924 303.995C576.904 303.995 573.743 302.628 571.44 299.893C569.136 297.159 567.985 293.445 567.985 288.752C567.985 283.922 569.171 280.169 571.543 277.495C573.915 274.821 577.042 273.484 580.924 273.484C584.823 273.484 587.946 274.816 590.292 277.482C592.639 280.148 593.812 283.904 593.812 288.752ZM588.792 288.752C588.792 285.008 588.11 282.226 586.747 280.406C585.384 278.586 583.443 277.676 580.924 277.676C578.388 277.676 576.434 278.586 575.063 280.406C573.691 282.226 573.005 285.008 573.005 288.752C573.005 292.375 573.691 295.123 575.063 296.995C576.434 298.867 578.388 299.803 580.924 299.803C583.426 299.803 585.363 298.884 586.734 297.046C588.106 295.209 588.792 292.444 588.792 288.752Z"/>
<path clip-path="url(#TextBounds)" d="M387.479 367.193L382.614 367.193L382.614 364.243C381.855 364.881 381.2 365.407 380.647 365.821C380.095 366.235 379.448 366.615 378.707 366.96C378.016 367.288 377.3 367.542 376.559 367.723C375.817 367.904 374.954 367.995 373.971 367.995C372.401 367.995 370.947 367.667 369.61 367.012C368.273 366.356 367.139 365.398 366.207 364.139C365.258 362.862 364.525 361.288 364.007 359.416C363.49 357.544 363.231 355.392 363.231 352.959C363.231 350.423 363.559 348.228 364.214 346.373C364.87 344.518 365.776 342.901 366.932 341.521C367.984 340.261 369.256 339.274 370.749 338.558C372.241 337.842 373.807 337.484 375.446 337.484C376.895 337.484 378.154 337.643 379.224 337.962C380.294 338.282 381.424 338.778 382.614 339.451L382.614 326.925L387.479 326.925L387.479 367.193ZM382.614 360.154L382.614 343.488C381.407 342.901 380.324 342.496 379.366 342.271C378.409 342.047 377.369 341.935 376.248 341.935C373.746 341.935 371.788 342.871 370.374 344.743C368.959 346.615 368.251 349.319 368.251 352.856C368.251 356.255 368.795 358.855 369.882 360.658C370.969 362.461 372.711 363.363 375.109 363.363C376.386 363.363 377.671 363.074 378.965 362.496C380.259 361.918 381.476 361.137 382.614 360.154Z"/>
<path clip-path="url(#TextBounds)" d="M399.487 367.193L394.622 367.193L394.622 338.286L399.487 338.286L399.487 367.193ZM399.824 333.447L394.286 333.447L394.286 328.4L399.824 328.4L399.824 333.447Z"/>
<path clip-path="url(#TextBounds)" d="M421.95 331.583L421.691 331.583C421.26 331.428 420.639 331.277 419.828 331.13C419.017 330.984 418.293 330.91 417.654 330.91C415.601 330.91 414.139 331.372 413.268 332.295C412.397 333.218 411.961 334.887 411.961 337.303L411.961 338.286L420.009 338.286L420.009 342.323L412.116 342.323L412.116 367.193L407.251 367.193L407.251 342.323L403.964 342.323L403.964 338.286L407.251 338.286L407.251 337.328C407.251 333.843 408.088 331.195 409.761 329.384C411.435 327.572 413.833 326.666 416.956 326.666C417.853 326.666 418.733 326.714 419.595 326.809C420.458 326.904 421.243 327.011 421.95 327.132L421.95 331.583Z"/>
<path clip-path="url(#TextBounds)" d="M438.461 331.583L438.202 331.583C437.771 331.428 437.15 331.277 436.339 331.13C435.528 330.984 434.803 330.91 434.165 330.91C432.112 330.91 430.65 331.372 429.779 332.295C428.907 333.218 428.472 334.887 428.472 337.303L428.472 338.286L436.52 338.286L436.52 342.323L428.627 342.323L428.627 367.193L423.762 367.193L423.762 342.323L420.475 342.323L420.475 338.286L423.762 338.286L423.762 337.328C423.762 333.843 424.598 331.195 426.272 329.384C427.945 327.572 430.344 326.666 433.466 326.666C434.363 326.666 435.243 326.714 436.106 326.809C436.969 326.904 437.754 327.011 438.461 327.132L438.461 331.583Z"/>
<path clip-path="url(#TextBounds)" d="M445.086 367.193L440.221 367.193L440.221 338.286L445.086 338.286L445.086 367.193ZM445.422 333.447L439.884 333.447L439.884 328.4L445.422 328.4L445.422 333.447Z"/>
<path clip-path="url(#TextBounds)" d="M463.719 367.84C461.735 367.84 459.915 367.533 458.258 366.921C456.602 366.308 455.179 365.381 453.988 364.139C452.798 362.897 451.875 361.331 451.219 359.442C450.564 357.553 450.236 355.332 450.236 352.778C450.236 350.242 450.577 348.051 451.258 346.205C451.94 344.359 452.85 342.806 453.988 341.547C455.127 340.287 456.546 339.317 458.245 338.635C459.945 337.954 461.769 337.613 463.719 337.613C465.306 337.613 466.837 337.837 468.312 338.286C469.787 338.735 471.103 339.252 472.259 339.839L472.259 345.299L471.974 345.299C471.629 345.006 471.185 344.669 470.641 344.29C470.098 343.91 469.438 343.522 468.662 343.125C467.989 342.78 467.195 342.478 466.281 342.22C465.366 341.961 464.486 341.831 463.641 341.831C461.122 341.831 459.099 342.785 457.573 344.691C456.046 346.597 455.282 349.293 455.282 352.778C455.282 356.194 456.02 358.855 457.495 360.762C458.97 362.668 461.019 363.621 463.641 363.621C465.228 363.621 466.738 363.294 468.17 362.638C469.602 361.982 470.87 361.137 471.974 360.102L472.259 360.102L472.259 365.562C471.776 365.787 471.172 366.058 470.447 366.378C469.723 366.697 469.067 366.934 468.48 367.089C467.652 367.331 466.91 367.516 466.255 367.646C465.599 367.775 464.754 367.84 463.719 367.84Z"/>
<path clip-path="url(#TextBounds)" d="M499.199 367.193L494.334 367.193L494.334 363.984C492.833 365.295 491.409 366.291 490.063 366.973C488.718 367.654 487.217 367.995 485.561 367.995C484.301 367.995 483.115 367.788 482.002 367.374C480.889 366.96 479.919 366.304 479.091 365.407C478.263 364.51 477.62 363.38 477.163 362.017C476.706 360.654 476.477 358.998 476.477 357.048L476.477 338.286L481.342 338.286L481.342 354.745C481.342 356.28 481.398 357.553 481.511 358.562C481.623 359.571 481.877 360.456 482.274 361.215C482.671 361.957 483.21 362.5 483.891 362.845C484.573 363.19 485.552 363.363 486.829 363.363C488.019 363.363 489.287 363.026 490.633 362.353C491.979 361.68 493.212 360.852 494.334 359.869L494.334 338.286L499.199 338.286L499.199 367.193Z"/>
<path clip-path="url(#TextBounds)" d="M511.207 367.193L506.341 367.193L506.341 326.925L511.207 326.925L511.207 367.193Z"/>
<path clip-path="url(#TextBounds)" d="M527.2 367.762C524.543 367.762 522.472 367.007 520.989 365.498C519.505 363.988 518.763 361.603 518.763 358.342L518.763 342.323L515.477 342.323L515.477 338.286L518.763 338.286L518.763 329.979L523.628 329.979L523.628 338.286L532.583 338.286L532.583 342.323L523.628 342.323L523.628 356.065C523.628 357.531 523.654 358.661 523.706 359.455C523.758 360.249 523.956 360.99 524.301 361.68C524.595 362.284 525.069 362.737 525.725 363.039C526.38 363.341 527.269 363.492 528.39 363.492C529.184 363.492 529.952 363.376 530.693 363.143C531.435 362.91 531.97 362.716 532.298 362.56L532.583 362.56L532.583 366.934C531.668 367.193 530.741 367.395 529.801 367.542C528.86 367.689 527.993 367.762 527.2 367.762Z"/>
<path clip-path="url(#TextBounds)" d="M556.262 337.717C556.262 339.407 555.981 340.913 555.421 342.232C554.86 343.552 554.114 344.713 553.182 345.713C552.25 346.714 551.194 347.637 550.012 348.482C548.83 349.328 547.584 350.147 546.272 350.941L546.272 356.841L541.64 356.841L541.64 348.948C542.606 348.361 543.732 347.658 545.017 346.839C546.303 346.019 547.308 345.256 548.032 344.549C548.964 343.669 549.688 342.707 550.206 341.663C550.724 340.619 550.982 339.433 550.982 338.105C550.982 336.155 550.37 334.702 549.145 333.744C547.92 332.787 546.324 332.308 544.357 332.308C542.632 332.308 541.006 332.597 539.479 333.175C537.952 333.753 536.715 334.352 535.766 334.973L535.481 334.973L535.481 329.694C536.637 329.228 538.095 328.81 539.854 328.439C541.614 328.068 543.279 327.883 544.849 327.883C548.386 327.883 551.172 328.784 553.208 330.587C555.244 332.39 556.262 334.766 556.262 337.717ZM546.687 367.193L541.407 367.193L541.407 361.732L546.687 361.732L546.687 367.193Z"/>
</g>
</g>
<g id="Arrows" vectornator:layerName="Arrows">
<g opacity="1">
<path d="M81.392 374.993L220.781 374.993" fill="none" opacity="1" stroke="#000000" stroke-linecap="butt" stroke-linejoin="round" stroke-width="10"/>
<path d="M84.6 376.155L120.671 406.272" fill="none" opacity="1" stroke="#000000" stroke-linecap="butt" stroke-linejoin="round" stroke-width="10"/>
<path d="M120.671 343.728L84.6 373.845" fill="none" opacity="1" stroke="#000000" stroke-linecap="butt" stroke-linejoin="round" stroke-width="10"/>
</g>
<g opacity="1">
<path d="M918.781 374.993L779.392 374.993" fill="none" opacity="1" stroke="#000000" stroke-linecap="butt" stroke-linejoin="round" stroke-width="10"/>
<path d="M915.573 376.155L879.502 406.272" fill="none" opacity="1" stroke="#000000" stroke-linecap="butt" stroke-linejoin="round" stroke-width="10"/>
<path d="M879.502 343.728L915.573 373.845" fill="none" opacity="1" stroke="#000000" stroke-linecap="butt" stroke-linejoin="round" stroke-width="10"/>
</g>
<g opacity="1">
<path d="M499.617 22.2789L500.369 161.666" fill="none" opacity="1" stroke="#000000" stroke-linecap="butt" stroke-linejoin="round" stroke-width="10"/>
<path d="M500.796 25.4806L531.108 61.3883" fill="none" opacity="1" stroke="#000000" stroke-linecap="butt" stroke-linejoin="round" stroke-width="10"/>
<path d="M468.564 61.7258L498.486 25.4931" fill="none" opacity="1" stroke="#000000" stroke-linecap="butt" stroke-linejoin="round" stroke-width="10"/>
</g>
<g opacity="1">
<path d="M499.617 721.666L500.369 582.279" fill="none" opacity="1" stroke="#000000" stroke-linecap="butt" stroke-linejoin="round" stroke-width="10"/>
<path d="M500.796 718.464L531.108 682.556" fill="none" opacity="1" stroke="#000000" stroke-linecap="butt" stroke-linejoin="round" stroke-width="10"/>
<path d="M468.564 682.219L498.486 718.452" fill="none" opacity="1" stroke="#000000" stroke-linecap="butt" stroke-linejoin="round" stroke-width="10"/>
</g>
</g>
</svg>
